# 3ds Max Wavefront OBJ Exporter v0.97b - (c)2007 guruware
# File Created: 07.04.2018 22:27:53

mtllib rOCKET.mtl

#
# object Object009
#

v  10.4063 6.8393 -3.8167
v  11.0742 6.9957 0.0000
v  12.0487 -0.5792 0.0000
v  11.3220 -0.7644 -4.1664
v  8.4833 6.4432 -7.1731
v  9.2298 -1.2332 -7.8303
v  5.5371 5.9928 -9.6643
v  6.0243 -1.7664 -10.5498
v  1.9230 5.6988 -10.9899
v  2.0922 -2.1144 -11.9968
v  -2.0922 -2.1144 -11.9968
v  -1.9230 5.6988 -10.9899
v  -6.0243 -1.7664 -10.5498
v  -5.5371 5.9928 -9.6643
v  -9.2298 -1.2332 -7.8303
v  -8.4833 6.4432 -7.1731
v  -11.3220 -0.7644 -4.1664
v  -10.4063 6.8393 -3.8167
v  -12.0487 -0.5792 -0.0000
v  -11.0742 6.9957 -0.0000
v  4.5330 27.4966 -1.6517
v  0.0000 33.1795 -0.0000
v  4.8240 27.4966 0.0000
v  7.4618 21.2793 0.0000
v  7.0118 21.2793 -2.5594
v  9.5452 13.9381 0.0000
v  8.9696 13.8219 -3.2811
v  11.5904 -17.8237 -4.3078
v  12.3342 -17.8237 0.0000
v  11.6453 -27.2477 0.0000
v  10.9430 -27.2477 -4.0995
v  11.7167 -8.9342 -4.3301
v  12.4687 -8.9342 0.0000
v  3.6954 27.4966 -3.1042
v  5.7161 21.2793 -4.8101
v  7.3121 13.5276 -6.1664
v  9.4486 -17.8237 -8.0961
v  8.9208 -27.2477 -7.7046
v  9.5515 -8.9342 -8.1380
v  2.4120 27.4966 -4.1823
v  3.7309 21.2793 -6.4806
v  4.7726 13.1930 -8.3080
v  6.1671 -17.8237 -10.9078
v  5.8226 -27.2477 -10.3804
v  6.2343 -8.9342 -10.9643
v  0.8377 27.4966 -4.7560
v  1.2957 21.2793 -7.3695
v  1.6575 12.9746 -9.4475
v  2.1418 -17.8237 -12.4039
v  2.0222 -27.2477 -11.8042
v  2.1652 -8.9342 -12.4681
v  -0.8377 27.4966 -4.7560
v  -1.2957 21.2793 -7.3695
v  -1.6575 12.9746 -9.4475
v  -2.4120 27.4966 -4.1823
v  -3.7309 21.2793 -6.4806
v  -4.7726 13.1930 -8.3080
v  -6.1671 -17.8237 -10.9078
v  -2.1418 -17.8237 -12.4039
v  -2.0222 -27.2477 -11.8042
v  -5.8226 -27.2477 -10.3804
v  -6.2343 -8.9342 -10.9643
v  -2.1652 -8.9342 -12.4681
v  -3.6954 27.4966 -3.1042
v  -5.7161 21.2793 -4.8101
v  -7.3121 13.5276 -6.1664
v  -9.4486 -17.8237 -8.0961
v  -8.9208 -27.2477 -7.7046
v  -9.5515 -8.9342 -8.1380
v  -4.5330 27.4966 -1.6517
v  -7.0118 21.2793 -2.5594
v  -8.9696 13.8219 -3.2811
v  -11.5904 -17.8237 -4.3078
v  -10.9430 -27.2477 -4.0995
v  -11.7167 -8.9342 -4.3301
v  -4.8240 27.4966 -0.0000
v  -7.4618 21.2793 -0.0000
v  -9.5452 13.9381 -0.0000
v  -12.3342 -17.8237 -0.0000
v  -11.6453 -27.2477 -0.0000
v  -12.4687 -8.9342 -0.0000
v  1.4965 -29.3360 -13.6559
v  -1.4965 -29.3360 -13.6559
v  0.0000 -27.2477 -0.0000
v  10.4063 6.8393 3.8167
v  11.3220 -0.7644 4.1664
v  8.4833 6.4432 7.1731
v  9.2298 -1.2332 7.8303
v  5.5371 5.9928 9.6643
v  6.0243 -1.7664 10.5498
v  1.9230 5.6988 10.9899
v  2.0922 -2.1144 11.9968
v  -1.9230 5.6988 10.9899
v  -2.0922 -2.1144 11.9968
v  -6.0243 -1.7664 10.5498
v  -5.5371 5.9928 9.6643
v  -9.2298 -1.2332 7.8303
v  -8.4833 6.4432 7.1731
v  -11.3220 -0.7644 4.1664
v  -10.4063 6.8393 3.8167
v  4.5330 27.4966 1.6517
v  7.0118 21.2793 2.5594
v  8.9696 13.8219 3.2811
v  11.5904 -17.8237 4.3078
v  10.9430 -27.2477 4.0995
v  11.7167 -8.9342 4.3301
v  3.6954 27.4966 3.1042
v  5.7161 21.2793 4.8101
v  7.3121 13.5276 6.1664
v  9.4486 -17.8237 8.0961
v  8.9208 -27.2477 7.7046
v  9.5515 -8.9342 8.1380
v  2.4120 27.4966 4.1823
v  3.7309 21.2793 6.4806
v  4.7726 13.1930 8.3080
v  6.1671 -17.8237 10.9078
v  5.8226 -27.2477 10.3804
v  6.2343 -8.9342 10.9643
v  0.8377 27.4966 4.7560
v  1.2957 21.2793 7.3695
v  1.6575 12.9746 9.4475
v  2.1418 -17.8237 12.4039
v  2.0222 -27.2477 11.8042
v  2.1652 -8.9342 12.4681
v  -0.8377 27.4966 4.7560
v  -1.2957 21.2793 7.3695
v  -1.6575 12.9746 9.4475
v  -2.4120 27.4966 4.1823
v  -3.7309 21.2793 6.4806
v  -4.7726 13.1930 8.3080
v  -2.0222 -27.2477 11.8042
v  -2.1418 -17.8237 12.4039
v  -6.1671 -17.8237 10.9078
v  -5.8226 -27.2477 10.3804
v  -2.1652 -8.9342 12.4681
v  -6.2343 -8.9342 10.9643
v  -3.6954 27.4966 3.1042
v  -5.7161 21.2793 4.8101
v  -7.3121 13.5276 6.1664
v  -9.4486 -17.8237 8.0961
v  -8.9208 -27.2477 7.7046
v  -9.5515 -8.9342 8.1380
v  -4.5330 27.4966 1.6517
v  -7.0118 21.2793 2.5594
v  -8.9696 13.8219 3.2811
v  -11.5904 -17.8237 4.3078
v  -10.9430 -27.2477 4.0995
v  -11.7167 -8.9342 4.3301
v  -1.5850 -22.5768 -15.4840
v  -1.6023 -16.0426 -16.7571
v  -1.5483 -10.8656 -17.2653
v  1.5483 -10.8656 -17.2653
v  1.6023 -16.0426 -16.7571
v  1.5850 -22.5768 -15.4840
v  -0.0001 -33.1794 -15.0793
v  0.0000 -29.6593 -17.8233
v  0.0000 -24.8815 -19.9978
v  0.0000 -20.9294 -21.2363
v  1.4965 -29.3360 13.6559
v  -1.4965 -29.3360 13.6559
v  -1.5850 -22.5768 15.4840
v  -1.6023 -16.0426 16.7571
v  -1.5483 -10.8656 17.2653
v  1.5483 -10.8656 17.2653
v  1.6023 -16.0426 16.7571
v  1.5850 -22.5768 15.4840
v  -0.0001 -33.1794 15.0793
v  -0.0000 -29.6593 17.8233
v  -0.0000 -24.8815 19.9978
v  -0.0000 -20.9294 21.2363
v  11.8042 -27.2477 -2.0222
v  12.4039 -17.8237 -2.1418
v  15.4840 -22.5768 -1.5850
v  13.6559 -29.3360 -1.4965
v  12.4681 -8.9342 -2.1652
v  16.7571 -16.0426 -1.6023
v  11.9968 -2.1144 -2.0922
v  17.2653 -10.8656 -1.5483
v  11.9968 -2.1144 2.0922
v  17.2653 -10.8656 1.5483
v  12.4681 -8.9342 2.1652
v  16.7571 -16.0426 1.6023
v  12.4039 -17.8237 2.1418
v  15.4840 -22.5768 1.5850
v  11.8042 -27.2477 2.0222
v  13.6559 -29.3360 1.4965
v  15.0793 -33.1794 -0.0001
v  17.8233 -29.6593 0.0000
v  19.9978 -24.8815 0.0000
v  21.2363 -20.9294 0.0000
v  -11.8042 -27.2477 -2.0222
v  -11.8042 -27.2477 2.0222
v  -13.6559 -29.3360 1.4965
v  -13.6559 -29.3360 -1.4965
v  -15.4840 -22.5768 -1.5850
v  -12.4039 -17.8237 -2.1418
v  -16.7571 -16.0426 -1.6023
v  -12.4681 -8.9342 -2.1652
v  -17.2653 -10.8656 -1.5483
v  -11.9968 -2.1144 -2.0922
v  -11.9968 -2.1144 2.0922
v  -17.2653 -10.8656 1.5483
v  -16.7571 -16.0426 1.6023
v  -12.4681 -8.9342 2.1652
v  -15.4840 -22.5768 1.5850
v  -12.4039 -17.8237 2.1418
v  -15.0793 -33.1794 -0.0001
v  -17.8233 -29.6593 -0.0000
v  -19.9978 -24.8815 -0.0000
v  -21.2363 -20.9294 -0.0000
# 210 vertices

vn 0.9225 0.1712 -0.3459
vn 0.9852 0.1717 0.0000
vn 0.9960 0.0897 0.0000
vn 0.9347 0.0903 -0.3438
vn 0.7455 0.1701 -0.6445
vn 0.7596 0.0921 -0.6439
vn 0.4818 0.1690 -0.8598
vn 0.4940 0.0951 -0.8642
vn 0.1662 0.1683 -0.9716
vn 0.2289 0.1071 -0.9676
vn -0.2289 0.1071 -0.9676
vn -0.1662 0.1683 -0.9716
vn -0.4940 0.0951 -0.8642
vn -0.4818 0.1690 -0.8598
vn -0.7596 0.0921 -0.6439
vn -0.7455 0.1701 -0.6445
vn -0.9347 0.0903 -0.3438
vn -0.9225 0.1712 -0.3459
vn -0.9960 0.0897 -0.0000
vn -0.9852 0.1717 -0.0000
vn 0.8041 0.5177 -0.2923
vn 0.0000 1.0000 -0.0000
vn 0.8557 0.5175 0.0000
vn 0.9439 0.3303 0.0000
vn 0.8873 0.3294 -0.3228
vn 0.9701 0.2428 0.0000
vn 0.9080 0.2404 -0.3432
vn 0.9409 -0.0429 -0.3359
vn 0.9990 -0.0437 0.0000
vn 0.9974 -0.0725 0.0000
vn 0.9400 -0.0714 -0.3337
vn 0.9409 0.0195 -0.3381
vn 0.9998 0.0180 0.0000
vn 0.6556 0.5180 -0.5494
vn 0.7239 0.3263 -0.6078
vn 0.7326 0.2350 -0.6388
vn 0.7716 -0.0406 -0.6348
vn 0.7721 -0.0688 -0.6317
vn 0.7700 0.0235 -0.6377
vn 0.4280 0.5184 -0.7403
vn 0.4729 0.3222 -0.8201
vn 0.4724 0.2301 -0.8508
vn 0.5071 -0.0380 -0.8610
vn 0.5085 -0.0662 -0.8585
vn 0.5048 0.0280 -0.8628
vn 0.1487 0.5186 -0.8420
vn 0.1640 0.3189 -0.9335
vn 0.1625 0.2276 -0.9601
vn 0.3485 -0.0361 -0.9366
vn 0.3501 -0.0639 -0.9345
vn 0.3467 0.0299 -0.9375
vn -0.1486 0.5187 -0.8419
vn -0.1640 0.3188 -0.9335
vn -0.1625 0.2276 -0.9601
vn -0.4280 0.5185 -0.7403
vn -0.4729 0.3221 -0.8201
vn -0.4724 0.2301 -0.8508
vn -0.5070 -0.0379 -0.8611
vn -0.3479 -0.0361 -0.9368
vn -0.3494 -0.0648 -0.9347
vn -0.5083 -0.0673 -0.8585
vn -0.5048 0.0284 -0.8628
vn -0.3465 0.0302 -0.9376
vn -0.6556 0.5181 -0.5494
vn -0.7240 0.3263 -0.6078
vn -0.7326 0.2350 -0.6388
vn -0.7716 -0.0405 -0.6348
vn -0.7721 -0.0701 -0.6316
vn -0.7700 0.0239 -0.6376
vn -0.8041 0.5177 -0.2923
vn -0.8873 0.3293 -0.3228
vn -0.9080 0.2404 -0.3432
vn -0.9410 -0.0428 -0.3357
vn -0.9400 -0.0722 -0.3334
vn -0.9409 0.0198 -0.3380
vn -0.8556 0.5176 -0.0000
vn -0.9439 0.3303 -0.0000
vn -0.9701 0.2428 -0.0000
vn -0.9990 -0.0437 -0.0000
vn -0.9973 -0.0729 -0.0000
vn -0.9998 0.0182 -0.0000
vn -0.0000 -0.6635 0.7482
vn 0.0000 -1.0000 -0.0000
vn 0.9225 0.1712 0.3459
vn 0.9347 0.0903 0.3438
vn 0.7455 0.1701 0.6445
vn 0.7596 0.0921 0.6439
vn 0.4818 0.1690 0.8598
vn 0.4940 0.0951 0.8642
vn 0.1662 0.1683 0.9716
vn 0.2289 0.1071 0.9676
vn -0.1662 0.1683 0.9716
vn -0.2289 0.1071 0.9676
vn -0.4940 0.0951 0.8642
vn -0.4818 0.1690 0.8598
vn -0.7596 0.0921 0.6439
vn -0.7455 0.1701 0.6445
vn -0.9347 0.0903 0.3438
vn -0.9225 0.1712 0.3459
vn 0.8041 0.5177 0.2923
vn 0.8873 0.3294 0.3228
vn 0.9080 0.2404 0.3432
vn 0.9409 -0.0429 0.3359
vn 0.9400 -0.0714 0.3337
vn 0.9409 0.0195 0.3381
vn 0.6556 0.5180 0.5494
vn 0.7239 0.3263 0.6078
vn 0.7326 0.2350 0.6388
vn 0.7716 -0.0406 0.6348
vn 0.7721 -0.0688 0.6317
vn 0.7700 0.0235 0.6377
vn 0.4280 0.5184 0.7403
vn 0.4729 0.3222 0.8201
vn 0.4724 0.2301 0.8508
vn 0.5071 -0.0380 0.8610
vn 0.5085 -0.0662 0.8585
vn 0.5048 0.0280 0.8628
vn 0.1487 0.5186 0.8420
vn 0.1640 0.3189 0.9335
vn 0.1625 0.2276 0.9601
vn 0.3485 -0.0361 0.9366
vn 0.3501 -0.0639 0.9345
vn 0.3467 0.0299 0.9375
vn -0.1486 0.5187 0.8419
vn -0.1640 0.3188 0.9335
vn -0.1625 0.2276 0.9601
vn -0.4280 0.5185 0.7403
vn -0.4729 0.3221 0.8201
vn -0.4724 0.2301 0.8508
vn -0.3494 -0.0648 0.9347
vn -0.3479 -0.0361 0.9368
vn -0.5070 -0.0379 0.8611
vn -0.5083 -0.0673 0.8585
vn -0.3465 0.0302 0.9376
vn -0.5048 0.0284 0.8628
vn -0.6556 0.5181 0.5494
vn -0.7240 0.3263 0.6078
vn -0.7326 0.2350 0.6388
vn -0.7716 -0.0405 0.6348
vn -0.7721 -0.0701 0.6316
vn -0.7700 0.0239 0.6376
vn -0.8041 0.5177 0.2923
vn -0.8873 0.3293 0.3228
vn -0.9080 0.2404 0.3432
vn -0.9410 -0.0428 0.3357
vn -0.9400 -0.0722 0.3334
vn -0.9409 0.0198 0.3380
vn -0.9808 -0.0555 -0.1870
vn -0.9910 -0.0181 -0.1330
vn -0.9720 -0.0575 -0.2277
vn -0.9480 -0.1355 -0.2881
vn -0.9912 0.0115 -0.1318
vn -0.9750 -0.0239 -0.2210
vn -0.9906 0.0200 -0.1354
vn -0.9871 -0.0005 -0.1604
vn 0.0000 0.4477 -0.8942
vn 0.0000 0.5158 -0.8567
vn 0.9912 0.0115 -0.1318
vn 0.9750 -0.0239 -0.2210
vn 0.9871 -0.0005 -0.1604
vn 0.9906 0.0200 -0.1354
vn 0.9910 -0.0181 -0.1330
vn 0.9720 -0.0575 -0.2277
vn 0.9808 -0.0555 -0.1870
vn 0.9480 -0.1355 -0.2881
vn -0.0000 -0.3473 0.9378
vn -0.9381 -0.1571 -0.3086
vn -0.9189 -0.2425 -0.3112
vn -0.9560 -0.0990 -0.2762
vn -0.9613 -0.0715 -0.2659
vn 0.0000 0.3670 -0.9302
vn 0.9560 -0.0990 -0.2762
vn 0.9613 -0.0715 -0.2659
vn 0.9381 -0.1571 -0.3086
vn 0.9189 -0.2426 -0.3111
vn 0.0000 -0.6635 -0.7482
vn 0.0000 -0.5428 -0.8398
vn -0.9720 -0.0575 0.2277
vn -0.9910 -0.0181 0.1330
vn -0.9808 -0.0555 0.1870
vn -0.9480 -0.1355 0.2881
vn -0.9750 -0.0239 0.2210
vn -0.9912 0.0115 0.1318
vn -0.9871 -0.0005 0.1604
vn -0.9906 0.0200 0.1354
vn -0.0000 0.5158 0.8567
vn -0.0000 0.4477 0.8942
vn 0.9871 -0.0005 0.1604
vn 0.9750 -0.0239 0.2210
vn 0.9912 0.0115 0.1318
vn 0.9906 0.0200 0.1354
vn 0.9720 -0.0575 0.2277
vn 0.9910 -0.0181 0.1330
vn 0.9480 -0.1355 0.2881
vn 0.9808 -0.0555 0.1870
vn 0.0000 -0.3473 -0.9378
vn -0.9189 -0.2425 0.3112
vn -0.9381 -0.1571 0.3086
vn -0.9560 -0.0990 0.2762
vn -0.9613 -0.0715 0.2659
vn -0.0000 0.3670 0.9302
vn 0.9613 -0.0715 0.2659
vn 0.9560 -0.0990 0.2762
vn 0.9381 -0.1571 0.3086
vn 0.9189 -0.2426 0.3111
vn 0.1870 -0.0555 -0.9808
vn 0.1330 -0.0181 -0.9910
vn 0.2277 -0.0575 -0.9720
vn 0.2881 -0.1355 -0.9480
vn 0.1318 0.0115 -0.9912
vn 0.2210 -0.0239 -0.9750
vn 0.1354 0.0200 -0.9906
vn 0.1604 -0.0005 -0.9871
vn 0.8942 0.4477 0.0000
vn 0.8567 0.5158 0.0000
vn 0.1318 0.0115 0.9912
vn 0.2210 -0.0239 0.9750
vn 0.1604 -0.0005 0.9871
vn 0.1354 0.0200 0.9906
vn 0.1330 -0.0181 0.9910
vn 0.2277 -0.0575 0.9720
vn 0.1870 -0.0555 0.9808
vn 0.2881 -0.1355 0.9480
vn -0.9378 -0.3473 -0.0000
vn 0.3086 -0.1571 -0.9381
vn 0.3112 -0.2425 -0.9189
vn 0.2762 -0.0990 -0.9560
vn 0.2659 -0.0715 -0.9613
vn 0.9302 0.3670 0.0000
vn 0.2762 -0.0990 0.9560
vn 0.2659 -0.0715 0.9613
vn 0.3086 -0.1571 0.9381
vn 0.3111 -0.2426 0.9189
vn 0.7482 -0.6635 0.0000
vn 0.8398 -0.5428 0.0000
vn -0.2277 -0.0575 -0.9720
vn -0.1330 -0.0181 -0.9910
vn -0.1870 -0.0555 -0.9808
vn -0.2881 -0.1355 -0.9480
vn -0.2210 -0.0239 -0.9750
vn -0.1318 0.0115 -0.9912
vn -0.1604 -0.0005 -0.9871
vn -0.1354 0.0200 -0.9906
vn -0.8567 0.5158 -0.0000
vn -0.8942 0.4477 -0.0000
vn -0.1604 -0.0005 0.9871
vn -0.2210 -0.0239 0.9750
vn -0.1318 0.0115 0.9912
vn -0.1354 0.0200 0.9906
vn -0.2277 -0.0575 0.9720
vn -0.1330 -0.0181 0.9910
vn -0.2881 -0.1355 0.9480
vn -0.1870 -0.0555 0.9808
vn 0.9378 -0.3473 0.0000
vn -0.3112 -0.2425 -0.9189
vn -0.3086 -0.1571 -0.9381
vn -0.2762 -0.0990 -0.9560
vn -0.2659 -0.0715 -0.9613
vn -0.9302 0.3670 -0.0000
vn -0.2659 -0.0715 0.9613
vn -0.2762 -0.0990 0.9560
vn -0.3086 -0.1571 0.9381
vn -0.3111 -0.2426 0.9189
# 263 vertex normals

vt 0.0313 0.4902 0.0000
vt 0.0084 0.4934 0.0000
vt 0.0047 0.4464 0.0000
vt 0.0300 0.4441 0.0000
vt 0.0543 0.4865 0.0000
vt 0.0554 0.4407 0.0000
vt 0.0774 0.4840 0.0000
vt 0.0812 0.4377 0.0000
vt 0.1004 0.4843 0.0000
vt 0.1074 0.4373 0.0000
vt 0.1348 0.4430 0.0000
vt 0.1227 0.4889 0.0000
vt 0.1587 0.4538 0.0000
vt 0.1438 0.4977 0.0000
vt 0.1812 0.4666 0.0000
vt 0.1640 0.5092 0.0000
vt 0.2031 0.4798 0.0000
vt 0.1836 0.5217 0.0000
vt 0.2254 0.4920 0.0000
vt 0.2034 0.5337 0.0000
vt 0.0525 0.6200 0.0000
vt 0.0757 0.6600 0.0000
vt 0.0439 0.6243 0.0000
vt 0.0266 0.5844 0.0000
vt 0.0413 0.5802 0.0000
vt 0.0151 0.5374 0.0000
vt 0.0347 0.5334 0.0000
vt 0.0295 0.3419 0.0000
vt 0.0034 0.3416 0.0000
vt 0.0055 0.2848 0.0000
vt 0.0305 0.2853 0.0000
vt 0.0294 0.3951 0.0000
vt 0.0030 0.3955 0.0000
vt 0.0616 0.6175 0.0000
vt 0.0561 0.5775 0.0000
vt 0.0542 0.5297 0.0000
vt 0.0556 0.3418 0.0000
vt 0.0556 0.2854 0.0000
vt 0.0556 0.3949 0.0000
vt 0.0707 0.6164 0.0000
vt 0.0708 0.5767 0.0000
vt 0.0738 0.5275 0.0000
vt 0.0815 0.3417 0.0000
vt 0.0803 0.2851 0.0000
vt 0.0819 0.3949 0.0000
vt 0.0799 0.6168 0.0000
vt 0.0853 0.5777 0.0000
vt 0.0932 0.5279 0.0000
vt 0.1072 0.3412 0.0000
vt 0.1047 0.2844 0.0000
vt 0.1080 0.3951 0.0000
vt 0.0889 0.6187 0.0000
vt 0.0995 0.5807 0.0000
vt 0.1119 0.5318 0.0000
vt 0.0975 0.6220 0.0000
vt 0.1132 0.5855 0.0000
vt 0.1299 0.5391 0.0000
vt 0.1964 0.3654 0.0000
vt 0.1731 0.3548 0.0000
vt 0.1978 0.3037 0.0000
vt 0.2199 0.3140 0.0000
vt 0.1750 0.4142 0.0000
vt 0.1509 0.4040 0.0000
vt 0.1055 0.6266 0.0000
vt 0.1263 0.5921 0.0000
vt 0.1470 0.5489 0.0000
vt 0.2202 0.3759 0.0000
vt 0.2426 0.3240 0.0000
vt 0.1991 0.4245 0.0000
vt 0.1127 0.6324 0.0000
vt 0.1388 0.6003 0.0000
vt 0.1635 0.5600 0.0000
vt 0.2440 0.3862 0.0000
vt 0.2655 0.3339 0.0000
vt 0.2231 0.4351 0.0000
vt 0.1189 0.6398 0.0000
vt 0.1507 0.6100 0.0000
vt 0.1798 0.5714 0.0000
vt 0.2681 0.3963 0.0000
vt 0.2887 0.3433 0.0000
vt 0.2472 0.4459 0.0000
vt 0.8225 0.1523 0.0000
vt 0.8349 0.1642 0.0000
vt 0.8160 0.1787 0.0000
vt 0.8084 0.1638 0.0000
vt 0.8419 0.4563 0.0000
vt 0.8461 0.4809 0.0000
vt 0.7763 0.4809 0.0000
vt 0.7066 0.4809 0.0000
vt 0.7108 0.4563 0.0000
vt 0.7229 0.4347 0.0000
vt 0.7415 0.4187 0.0000
vt 0.7642 0.4102 0.0000
vt 0.7884 0.4102 0.0000
vt 0.8112 0.4187 0.0000
vt 0.8298 0.4347 0.0000
vt 0.9172 0.7241 0.0000
vt 0.8604 0.7241 0.0000
vt 0.8882 0.7039 0.0000
vt 0.9292 0.7125 0.0000
vt 0.8066 0.7241 0.0000
vt 0.8491 0.6977 0.0000
vt 0.7652 0.7241 0.0000
vt 0.8183 0.6953 0.0000
vt 0.7545 0.7015 0.0000
vt 0.8119 0.6782 0.0000
vt 0.9451 0.1642 0.0000
vt 0.9027 0.1373 0.0000
vt 0.9337 0.1345 0.0000
vt 0.9862 0.1642 0.0000
vt 0.8914 0.1642 0.0000
vt 0.8635 0.1437 0.0000
vt 0.7994 0.1398 0.0000
vt 0.9303 0.6860 0.0000
vt 0.9524 0.7007 0.0000
vt 0.9013 0.6743 0.0000
vt 0.8772 0.6677 0.0000
vt 0.8504 0.1143 0.0000
vt 0.8741 0.1078 0.0000
vt 0.8214 0.1257 0.0000
# 120 texture coords

g Object009
usemtl wire_19822587
s 1
f 1/1/1 2/2/2 3/3/3 4/4/4 
f 5/5/5 1/1/1 4/4/4 6/6/6 
f 7/7/7 5/5/5 6/6/6 8/8/8 
f 9/9/9 7/7/7 8/8/8 10/10/10 
f 10/10/10 11/11/11 12/12/12 9/9/9 
f 12/12/12 11/11/11 13/13/13 14/14/14 
f 14/14/14 13/13/13 15/15/15 16/16/16 
f 16/16/16 15/15/15 17/17/17 18/18/18 
f 18/18/18 17/17/17 19/19/19 20/20/20 
f 21/21/21 22/22/22 23/23/23 
f 24/24/24 25/25/25 21/21/21 23/23/23 
f 25/25/25 24/24/24 26/26/26 27/27/27 
f 27/27/27 26/26/26 2/2/2 1/1/1 
f 28/28/28 29/29/29 30/30/30 31/31/31 
f 32/32/32 33/33/33 29/29/29 28/28/28 
f 33/33/33 32/32/32 4/4/4 3/3/3 
f 34/34/34 22/22/22 21/21/21 
f 25/25/25 35/35/35 34/34/34 21/21/21 
f 35/35/35 25/25/25 27/27/27 36/36/36 
f 36/36/36 27/27/27 1/1/1 5/5/5 
f 37/37/37 28/28/28 31/31/31 38/38/38 
f 39/39/39 32/32/32 28/28/28 37/37/37 
f 32/32/32 39/39/39 6/6/6 4/4/4 
f 40/40/40 22/22/22 34/34/34 
f 35/35/35 41/41/41 40/40/40 34/34/34 
f 41/41/41 35/35/35 36/36/36 42/42/42 
f 42/42/42 36/36/36 5/5/5 7/7/7 
f 43/43/43 37/37/37 38/38/38 44/44/44 
f 45/45/45 39/39/39 37/37/37 43/43/43 
f 39/39/39 45/45/45 8/8/8 6/6/6 
f 46/46/46 22/22/22 40/40/40 
f 41/41/41 47/47/47 46/46/46 40/40/40 
f 47/47/47 41/41/41 42/42/42 48/48/48 
f 48/48/48 42/42/42 7/7/7 9/9/9 
f 49/49/49 43/43/43 44/44/44 50/50/50 
f 51/51/51 45/45/45 43/43/43 49/49/49 
f 45/45/45 51/51/51 10/10/10 8/8/8 
f 52/52/52 22/22/22 46/46/46 
f 47/47/47 53/53/53 52/52/52 46/46/46 
f 48/48/48 54/54/54 53/53/53 47/47/47 
f 9/9/9 12/12/12 54/54/54 48/48/48 
f 55/55/55 22/22/22 52/52/52 
f 53/53/53 56/56/56 55/55/55 52/52/52 
f 53/53/53 54/54/54 57/57/57 56/56/56 
f 54/54/54 12/12/12 14/14/14 57/57/57 
f 58/58/58 59/59/59 60/60/60 61/61/61 
f 62/62/62 63/63/63 59/59/59 58/58/58 
f 62/62/62 13/13/13 11/11/11 63/63/63 
f 64/64/64 22/22/22 55/55/55 
f 56/56/56 65/65/65 64/64/64 55/55/55 
f 56/56/56 57/57/57 66/66/66 65/65/65 
f 57/57/57 14/14/14 16/16/16 66/66/66 
f 67/67/67 58/58/58 61/61/61 68/68/68 
f 69/69/69 62/62/62 58/58/58 67/67/67 
f 69/69/69 15/15/15 13/13/13 62/62/62 
f 70/70/70 22/22/22 64/64/64 
f 65/65/65 71/71/71 70/70/70 64/64/64 
f 65/65/65 66/66/66 72/72/72 71/71/71 
f 66/66/66 16/16/16 18/18/18 72/72/72 
f 73/73/73 67/67/67 68/68/68 74/74/74 
f 75/75/75 69/69/69 67/67/67 73/73/73 
f 75/75/75 17/17/17 15/15/15 69/69/69 
f 76/76/76 22/22/22 70/70/70 
f 71/71/71 77/77/77 76/76/76 70/70/70 
f 71/71/71 72/72/72 78/78/78 77/77/77 
f 72/72/72 18/18/18 20/20/20 78/78/78 
f 79/79/79 73/73/73 74/74/74 80/80/80 
f 81/81/81 75/75/75 73/73/73 79/79/79 
f 81/81/81 19/19/19 17/17/17 75/75/75 
s 2
f 82/82/82 50/83/82 60/84/82 83/85/82 
s 4
f 31/86/83 30/87/83 84/88/83 
f 80/89/83 74/90/83 84/88/83 
f 74/90/83 68/91/83 84/88/83 
f 68/91/83 61/92/83 84/88/83 
f 61/92/83 60/93/83 84/88/83 
f 60/93/83 50/94/83 84/88/83 
f 50/94/83 44/95/83 84/88/83 
f 44/95/83 38/96/83 84/88/83 
f 38/96/83 31/86/83 84/88/83 
s 1
f 3/3/3 2/2/2 85/1/84 86/4/85 
f 86/4/85 85/1/84 87/5/86 88/6/87 
f 88/6/87 87/5/86 89/7/88 90/8/89 
f 90/8/89 89/7/88 91/9/90 92/10/91 
f 93/12/92 94/11/93 92/10/91 91/9/90 
f 95/13/94 94/11/93 93/12/92 96/14/95 
f 97/15/96 95/13/94 96/14/95 98/16/97 
f 99/17/98 97/15/96 98/16/97 100/18/99 
f 19/19/19 99/17/98 100/18/99 20/20/20 
f 22/22/22 101/21/100 23/23/23 
f 101/21/100 102/25/101 24/24/24 23/23/23 
f 26/26/26 24/24/24 102/25/101 103/27/102 
f 2/2/2 26/26/26 103/27/102 85/1/84 
f 30/30/30 29/29/29 104/28/103 105/31/104 
f 29/29/29 33/33/33 106/32/105 104/28/103 
f 86/4/85 106/32/105 33/33/33 3/3/3 
f 22/22/22 107/34/106 101/21/100 
f 107/34/106 108/35/107 102/25/101 101/21/100 
f 103/27/102 102/25/101 108/35/107 109/36/108 
f 85/1/84 103/27/102 109/36/108 87/5/86 
f 105/31/104 104/28/103 110/37/109 111/38/110 
f 104/28/103 106/32/105 112/39/111 110/37/109 
f 88/6/87 112/39/111 106/32/105 86/4/85 
f 22/22/22 113/40/112 107/34/106 
f 113/40/112 114/41/113 108/35/107 107/34/106 
f 109/36/108 108/35/107 114/41/113 115/42/114 
f 87/5/86 109/36/108 115/42/114 89/7/88 
f 111/38/110 110/37/109 116/43/115 117/44/116 
f 110/37/109 112/39/111 118/45/117 116/43/115 
f 90/8/89 118/45/117 112/39/111 88/6/87 
f 22/22/22 119/46/118 113/40/112 
f 119/46/118 120/47/119 114/41/113 113/40/112 
f 115/42/114 114/41/113 120/47/119 121/48/120 
f 89/7/88 115/42/114 121/48/120 91/9/90 
f 117/44/116 116/43/115 122/49/121 123/50/122 
f 116/43/115 118/45/117 124/51/123 122/49/121 
f 92/10/91 124/51/123 118/45/117 90/8/89 
f 22/22/22 125/52/124 119/46/118 
f 125/52/124 126/53/125 120/47/119 119/46/118 
f 126/53/125 127/54/126 121/48/120 120/47/119 
f 127/54/126 93/12/92 91/9/90 121/48/120 
f 22/22/22 128/55/127 125/52/124 
f 128/55/127 129/56/128 126/53/125 125/52/124 
f 130/57/129 127/54/126 126/53/125 129/56/128 
f 96/14/95 93/12/92 127/54/126 130/57/129 
f 131/60/130 132/59/131 133/58/132 134/61/133 
f 132/59/131 135/63/134 136/62/135 133/58/132 
f 94/11/93 95/13/94 136/62/135 135/63/134 
f 22/22/22 137/64/136 128/55/127 
f 137/64/136 138/65/137 129/56/128 128/55/127 
f 139/66/138 130/57/129 129/56/128 138/65/137 
f 98/16/97 96/14/95 130/57/129 139/66/138 
f 134/61/133 133/58/132 140/67/139 141/68/140 
f 133/58/132 136/62/135 142/69/141 140/67/139 
f 95/13/94 97/15/96 142/69/141 136/62/135 
f 22/22/22 143/70/142 137/64/136 
f 143/70/142 144/71/143 138/65/137 137/64/136 
f 145/72/144 139/66/138 138/65/137 144/71/143 
f 100/18/99 98/16/97 139/66/138 145/72/144 
f 141/68/140 140/67/139 146/73/145 147/74/146 
f 140/67/139 142/69/141 148/75/147 146/73/145 
f 97/15/96 99/17/98 148/75/147 142/69/141 
f 22/22/22 76/76/76 143/70/142 
f 76/76/76 77/77/77 144/71/143 143/70/142 
f 78/78/78 145/72/144 144/71/143 77/77/77 
f 20/20/20 100/18/99 145/72/144 78/78/78 
f 147/74/146 146/73/145 79/79/79 80/80/80 
f 146/73/145 148/75/147 81/81/81 79/79/79 
f 99/17/98 19/19/19 81/81/81 148/75/147 
s 4
f 30/87/83 105/86/83 84/88/83 
f 147/90/83 80/89/83 84/88/83 
f 141/91/83 147/90/83 84/88/83 
f 134/92/83 141/91/83 84/88/83 
f 131/93/83 134/92/83 84/88/83 
f 123/94/83 131/93/83 84/88/83 
f 117/95/83 123/94/83 84/88/83 
f 111/96/83 117/95/83 84/88/83 
f 105/86/83 111/96/83 84/88/83 
s 1
f 60/97/148 59/98/149 149/99/150 83/100/151 
f 59/98/149 63/101/152 150/102/153 149/99/150 
f 63/101/152 11/103/154 151/104/155 150/102/153 
s 2
f 151/104/156 11/103/157 10/105/157 152/106/156 
s 4
f 51/107/158 153/108/159 152/109/160 10/110/161 
f 49/111/162 154/112/163 153/108/159 51/107/158 
f 50/83/164 82/82/165 154/112/163 49/111/162 
s 2
f 83/85/166 155/113/166 82/82/166 
s 1
f 156/114/167 155/115/168 83/100/151 149/99/150 
f 157/116/169 156/114/167 149/99/150 150/102/153 
f 158/117/170 157/116/169 150/102/153 151/104/155 
s 2
f 152/106/156 158/117/171 151/104/156 
s 4
f 153/108/159 157/118/172 158/119/173 152/109/160 
f 154/112/163 156/120/174 157/118/172 153/108/159 
f 82/82/165 155/113/175 156/120/174 154/112/163 
s 1
f 131/84/176 123/83/176 159/82/177 160/85/177 
s 2
f 161/99/178 132/98/179 131/97/180 160/100/181 
f 162/102/182 135/101/183 132/98/179 161/99/178 
f 163/104/184 94/103/185 135/101/183 162/102/182 
s 1
f 92/105/186 94/103/186 163/104/187 164/106/187 
s 4
f 164/109/188 165/108/189 124/107/190 92/110/191 
f 165/108/189 166/112/192 122/111/193 124/107/190 
f 166/112/192 159/82/194 123/83/195 122/111/193 
s 1
f 167/113/196 160/85/177 159/82/177 
s 2
f 160/100/181 167/115/197 168/114/198 161/99/178 
f 161/99/178 168/114/198 169/116/199 162/102/182 
f 162/102/182 169/116/199 170/117/200 163/104/184 
s 1
f 170/117/201 164/106/187 163/104/187 
s 4
f 170/119/202 169/118/203 165/108/189 164/109/188 
f 169/118/203 168/120/204 166/112/192 165/108/189 
f 168/120/204 167/113/205 159/82/194 166/112/192 
s 1
f 171/97/206 172/98/207 173/99/208 174/100/209 
f 172/98/207 175/101/210 176/102/211 173/99/208 
f 175/101/210 177/103/212 178/104/213 176/102/211 
s 2
f 178/104/214 177/103/215 179/105/215 180/106/214 
s 4
f 181/107/216 182/108/217 180/109/218 179/110/219 
f 183/111/220 184/112/221 182/108/217 181/107/216 
f 185/83/222 186/82/223 184/112/221 183/111/220 
s 2
f 174/85/224 187/113/224 186/82/224 
s 1
f 188/114/225 187/115/226 174/100/209 173/99/208 
f 189/116/227 188/114/225 173/99/208 176/102/211 
f 190/117/228 189/116/227 176/102/211 178/104/213 
s 2
f 180/106/214 190/117/229 178/104/214 
s 4
f 182/108/217 189/118/230 190/119/231 180/109/218 
f 184/112/221 188/120/232 189/118/230 182/108/217 
f 186/82/223 187/113/233 188/120/232 184/112/221 
s 1
f 191/84/234 192/83/234 193/82/235 194/85/235 
s 2
f 195/99/236 196/98/237 191/97/238 194/100/239 
f 197/102/240 198/101/241 196/98/237 195/99/236 
f 199/104/242 200/103/243 198/101/241 197/102/240 
s 1
f 201/105/244 200/103/244 199/104/245 202/106/245 
s 4
f 202/109/246 203/108/247 204/107/248 201/110/249 
f 203/108/247 205/112/250 206/111/251 204/107/248 
f 205/112/250 193/82/252 192/83/253 206/111/251 
s 1
f 207/113/254 194/85/235 193/82/235 
s 2
f 194/100/239 207/115/255 208/114/256 195/99/236 
f 195/99/236 208/114/256 209/116/257 197/102/240 
f 197/102/240 209/116/257 210/117/258 199/104/242 
s 1
f 210/117/259 202/106/245 199/104/245 
s 4
f 210/119/260 209/118/261 203/108/247 202/109/246 
f 209/118/261 208/120/262 205/112/250 203/108/247 
f 208/120/262 207/113/263 193/82/252 205/112/250 
# 175 polygons - 44 triangles

